<svg xmlns="http://www.w3.org/2000/svg" xmlns:xlink="http://www.w3.org/1999/xlink" contentStyleType="text/css" data-diagram-type="CLASS" height="289px" preserveAspectRatio="none" style="width:314px;height:289px;background:#FFFFFF;" version="1.1" viewBox="0 0 314 289" width="314px" zoomAndPan="magnify"><title>Warm House User Profile Code Diagram</title><defs/><g><text fill="#000000" font-family="sans-serif" font-size="14" font-weight="bold" lengthAdjust="spacing" textLength="286.5557" x="10" y="23.5352">Warm House User Profile Code Diagram</text><!--class ProfileService--><g class="entity" data-entity="ProfileService" data-source-line="7" data-uid="ent0002" id="entity_ProfileService"><rect fill="#F1F1F1" height="80.9766" rx="2.5" ry="2.5" style="stroke:#181818;stroke-width:0.5;" width="208.2461" x="56.1548" y="44.4883"/><ellipse cx="110.8081" cy="60.4883" fill="#ADD1B2" rx="11" ry="11" style="stroke:#181818;stroke-width:1;"/><path d="M113.2813,66.6313 Q112.7002,66.9302 112.061,67.0796 Q111.4219,67.229 110.7163,67.229 Q108.2095,67.229 106.8896,65.5771 Q105.5698,63.9253 105.5698,60.8042 Q105.5698,57.6748 106.8896,56.0229 Q108.2095,54.3711 110.7163,54.3711 Q111.4219,54.3711 112.0693,54.5205 Q112.7168,54.6699 113.2813,54.9688 L113.2813,57.6914 Q112.6504,57.1104 112.0569,56.8406 Q111.4634,56.5708 110.8325,56.5708 Q109.4878,56.5708 108.803,57.6375 Q108.1182,58.7041 108.1182,60.8042 Q108.1182,62.896 108.803,63.9626 Q109.4878,65.0293 110.8325,65.0293 Q111.4634,65.0293 112.0569,64.7595 Q112.6504,64.4897 113.2813,63.9087 Z " fill="#000000"/><text fill="#000000" font-family="sans-serif" font-size="14" lengthAdjust="spacing" textLength="90.4395" x="131.3081" y="65.7793">ProfileService</text><line style="stroke:#181818;stroke-width:0.5;" x1="57.1548" x2="263.4009" y1="76.4883" y2="76.4883"/><line style="stroke:#181818;stroke-width:0.5;" x1="57.1548" x2="263.4009" y1="84.4883" y2="84.4883"/><ellipse cx="67.1548" cy="98.2324" fill="#84BE84" rx="3" ry="3" style="stroke:#038048;stroke-width:1;"/><text fill="#000000" font-family="sans-serif" font-size="14" lengthAdjust="spacing" textLength="73.4727" x="76.1548" y="102.0234">UserProfile</text><text fill="#000000" font-family="sans-serif" font-size="14" lengthAdjust="spacing" textLength="4.4297" x="149.6274" y="102.0234">&#160;</text><text fill="#000000" font-family="sans-serif" font-size="14" lengthAdjust="spacing" textLength="104.3438" x="154.0571" y="102.0234">getUserProfile()</text><ellipse cx="67.1548" cy="114.7207" fill="#84BE84" rx="3" ry="3" style="stroke:#038048;stroke-width:1;"/><text fill="#000000" font-family="sans-serif" font-size="14" lengthAdjust="spacing" textLength="28.7041" x="76.1548" y="118.5117">void</text><text fill="#000000" font-family="sans-serif" font-size="14" lengthAdjust="spacing" textLength="4.4297" x="104.8589" y="118.5117">&#160;</text><text fill="#000000" font-family="sans-serif" font-size="14" lengthAdjust="spacing" textLength="129.6572" x="109.2886" y="118.5117">updateUserProfile()</text></g><!--class ProfileRepository--><g class="entity" data-entity="ProfileRepository" data-source-line="12" data-uid="ent0003" id="entity_ProfileRepository"><rect fill="#F1F1F1" height="80.9766" rx="2.5" ry="2.5" style="stroke:#181818;stroke-width:0.5;" width="167.9141" x="76.3248" y="201.4583"/><ellipse cx="100.6311" cy="217.4583" fill="#ADD1B2" rx="11" ry="11" style="stroke:#181818;stroke-width:1;"/><path d="M103.1042,223.6013 Q102.5232,223.9002 101.884,224.0496 Q101.2449,224.199 100.5393,224.199 Q98.0325,224.199 96.7126,222.5471 Q95.3928,220.8953 95.3928,217.7742 Q95.3928,214.6448 96.7126,212.9929 Q98.0325,211.3411 100.5393,211.3411 Q101.2449,211.3411 101.8923,211.4905 Q102.5398,211.6399 103.1042,211.9387 L103.1042,214.6614 Q102.4734,214.0804 101.8799,213.8106 Q101.2864,213.5408 100.6555,213.5408 Q99.3108,213.5408 98.626,214.6075 Q97.9411,215.6741 97.9411,217.7742 Q97.9411,219.866 98.626,220.9326 Q99.3108,221.9993 100.6555,221.9993 Q101.2864,221.9993 101.8799,221.7295 Q102.4734,221.4597 103.1042,220.8787 Z " fill="#000000"/><text fill="#000000" font-family="sans-serif" font-size="14" lengthAdjust="spacing" textLength="115.2334" x="116.6992" y="222.7493">ProfileRepository</text><line style="stroke:#181818;stroke-width:0.5;" x1="77.3248" x2="243.2388" y1="233.4583" y2="233.4583"/><line style="stroke:#181818;stroke-width:0.5;" x1="77.3248" x2="243.2388" y1="241.4583" y2="241.4583"/><ellipse cx="87.3248" cy="255.2024" fill="#84BE84" rx="3" ry="3" style="stroke:#038048;stroke-width:1;"/><text fill="#000000" font-family="sans-serif" font-size="14" lengthAdjust="spacing" textLength="73.4727" x="96.3248" y="258.9934">UserProfile</text><text fill="#000000" font-family="sans-serif" font-size="14" lengthAdjust="spacing" textLength="4.4297" x="169.7974" y="258.9934">&#160;</text><text fill="#000000" font-family="sans-serif" font-size="14" lengthAdjust="spacing" textLength="64.0117" x="174.2271" y="258.9934">findById()</text><ellipse cx="87.3248" cy="271.6907" fill="#84BE84" rx="3" ry="3" style="stroke:#038048;stroke-width:1;"/><text fill="#000000" font-family="sans-serif" font-size="14" lengthAdjust="spacing" textLength="28.7041" x="96.3248" y="275.4817">void</text><text fill="#000000" font-family="sans-serif" font-size="14" lengthAdjust="spacing" textLength="4.4297" x="125.0289" y="275.4817">&#160;</text><text fill="#000000" font-family="sans-serif" font-size="14" lengthAdjust="spacing" textLength="39.0195" x="129.4586" y="275.4817">save()</text></g><!--link ProfileService to ProfileRepository--><g class="link" data-entity-1="ProfileService" data-entity-2="ProfileRepository" data-source-line="17" data-uid="lnk4" id="link_ProfileService_ProfileRepository"><path codeLine="17" d="M160.2748,125.8883 C160.2748,149.0183 160.2748,172.0583 160.2748,195.1783" fill="none" id="ProfileService-to-ProfileRepository" style="stroke:#666666;stroke-width:1;"/><polygon fill="#666666" points="160.2748,201.1783,164.2748,192.1783,160.2748,196.1783,156.2748,192.1783,160.2748,201.1783" style="stroke:#666666;stroke-width:1;"/><text fill="#666666" font-family="sans-serif" font-size="12" lengthAdjust="spacing" textLength="27.2344" x="161.2748" y="168.0598">Uses</text></g></g></svg>