<svg xmlns="http://www.w3.org/2000/svg" xmlns:xlink="http://www.w3.org/1999/xlink" contentStyleType="text/css" data-diagram-type="CLASS" height="355px" preserveAspectRatio="none" style="width:572px;height:355px;background:#FFFFFF;" version="1.1" viewBox="0 0 572 355" width="572px" zoomAndPan="magnify"><title>Warm House ER Diagram</title><defs/><g><text fill="#000000" font-family="sans-serif" font-size="14" font-weight="bold" lengthAdjust="spacing" textLength="179.2041" x="189.6294" y="23.5352">Warm House ER Diagram</text><!--class Family--><g class="entity" data-entity="Family" data-source-line="3" data-uid="ent0002" id="entity_Family"><rect fill="#F1F1F1" height="80.9766" rx="2.5" ry="2.5" style="stroke:#181818;stroke-width:0.5;" width="130.2412" x="235.09" y="44.4883"/><ellipse cx="274.6264" cy="60.4883" fill="#ADD1B2" rx="11" ry="11" style="stroke:#181818;stroke-width:1;"/><path d="M278.2407,66.9883 L270.521,66.9883 L270.521,54.5952 L278.2407,54.5952 L278.2407,56.7534 L272.9697,56.7534 L272.9697,59.4263 L277.7426,59.4263 L277.7426,61.5845 L272.9697,61.5845 L272.9697,64.8301 L278.2407,64.8301 Z " fill="#000000"/><text fill="#000000" font-family="sans-serif" font-size="14" lengthAdjust="spacing" textLength="43.7158" x="294.079" y="65.7793">Family</text><line style="stroke:#181818;stroke-width:0.5;" x1="236.09" x2="364.3312" y1="76.4883" y2="76.4883"/><ellipse cx="246.09" cy="90.2324" fill="#000000" rx="3" ry="3" style="stroke:#000000;stroke-width:1;"/><text fill="#000000" font-family="sans-serif" font-size="14" lengthAdjust="spacing" textLength="55.6377" x="255.09" y="94.0234">id: UUID</text><line style="stroke:#181818;stroke-width:1;" x1="236.09" x2="364.3312" y1="100.9766" y2="100.9766"/><ellipse cx="246.09" cy="114.7207" fill="#000000" rx="3" ry="3" style="stroke:#000000;stroke-width:1;"/><text fill="#000000" font-family="sans-serif" font-size="14" lengthAdjust="spacing" textLength="104.2412" x="255.09" y="118.5117">owner_id: UUID</text></g><!--class User--><g class="entity" data-entity="User" data-source-line="9" data-uid="ent0003" id="entity_User"><rect fill="#F1F1F1" height="163.418" rx="2.5" ry="2.5" style="stroke:#181818;stroke-width:0.5;" width="178.4141" x="7" y="185.4583"/><ellipse cx="76.7744" cy="201.4583" fill="#ADD1B2" rx="11" ry="11" style="stroke:#181818;stroke-width:1;"/><path d="M80.3887,207.9583 L72.6689,207.9583 L72.6689,195.5652 L80.3887,195.5652 L80.3887,197.7234 L75.1177,197.7234 L75.1177,200.3963 L79.8906,200.3963 L79.8906,202.5545 L75.1177,202.5545 L75.1177,205.8001 L80.3887,205.8001 Z " fill="#000000"/><text fill="#000000" font-family="sans-serif" font-size="14" lengthAdjust="spacing" textLength="30.3652" x="97.2744" y="206.7493">User</text><line style="stroke:#181818;stroke-width:0.5;" x1="8" x2="184.4141" y1="217.4583" y2="217.4583"/><ellipse cx="18" cy="231.2024" fill="#000000" rx="3" ry="3" style="stroke:#000000;stroke-width:1;"/><text fill="#000000" font-family="sans-serif" font-size="14" lengthAdjust="spacing" textLength="55.6377" x="27" y="234.9934">id: UUID</text><line style="stroke:#181818;stroke-width:1;" x1="8" x2="184.4141" y1="241.9466" y2="241.9466"/><ellipse cx="18" cy="255.6907" fill="#000000" rx="3" ry="3" style="stroke:#000000;stroke-width:1;"/><text fill="#000000" font-family="sans-serif" font-size="14" lengthAdjust="spacing" textLength="103.9951" x="27" y="259.4817">family_id: UUID</text><ellipse cx="18" cy="272.179" fill="#000000" rx="3" ry="3" style="stroke:#000000;stroke-width:1;"/><text fill="#000000" font-family="sans-serif" font-size="14" lengthAdjust="spacing" textLength="85.7158" x="27" y="275.97">name: string</text><ellipse cx="18" cy="288.6673" fill="#000000" rx="3" ry="3" style="stroke:#000000;stroke-width:1;"/><text fill="#000000" font-family="sans-serif" font-size="14" lengthAdjust="spacing" textLength="107.2695" x="27" y="292.4583">surname: string</text><ellipse cx="18" cy="305.1555" fill="#000000" rx="3" ry="3" style="stroke:#000000;stroke-width:1;"/><text fill="#000000" font-family="sans-serif" font-size="14" lengthAdjust="spacing" textLength="85.1211" x="27" y="308.9466">email: string</text><ellipse cx="18" cy="321.6438" fill="#000000" rx="3" ry="3" style="stroke:#000000;stroke-width:1;"/><text fill="#000000" font-family="sans-serif" font-size="14" lengthAdjust="spacing" textLength="152.4141" x="27" y="325.4348">password_hash: string</text><ellipse cx="18" cy="338.1321" fill="#000000" rx="3" ry="3" style="stroke:#000000;stroke-width:1;"/><text fill="#000000" font-family="sans-serif" font-size="14" lengthAdjust="spacing" textLength="89.8311" x="27" y="341.9231">avatar: string</text></g><!--class IoT Device--><g class="entity" data-entity="IoT Device" data-source-line="20" data-uid="ent0004" id="entity_IoT Device"><rect fill="#F1F1F1" height="163.418" rx="2.5" ry="2.5" style="stroke:#181818;stroke-width:0.5;" width="159.0752" x="220.67" y="185.4583"/><ellipse cx="261.1447" cy="201.4583" fill="#ADD1B2" rx="11" ry="11" style="stroke:#181818;stroke-width:1;"/><path d="M264.7589,207.9583 L257.0392,207.9583 L257.0392,195.5652 L264.7589,195.5652 L264.7589,197.7234 L259.4879,197.7234 L259.4879,200.3963 L264.2609,200.3963 L264.2609,202.5545 L259.4879,202.5545 L259.4879,205.8001 L264.7589,205.8001 Z " fill="#000000"/><text fill="#000000" font-family="sans-serif" font-size="14" lengthAdjust="spacing" textLength="70.4648" x="280.8057" y="206.7493">IoT Device</text><line style="stroke:#181818;stroke-width:0.5;" x1="221.67" x2="378.7452" y1="217.4583" y2="217.4583"/><ellipse cx="231.67" cy="231.2024" fill="#000000" rx="3" ry="3" style="stroke:#000000;stroke-width:1;"/><text fill="#000000" font-family="sans-serif" font-size="14" lengthAdjust="spacing" textLength="55.6377" x="240.67" y="234.9934">id: UUID</text><line style="stroke:#181818;stroke-width:1;" x1="221.67" x2="378.7452" y1="241.9466" y2="241.9466"/><ellipse cx="231.67" cy="255.6907" fill="#000000" rx="3" ry="3" style="stroke:#000000;stroke-width:1;"/><text fill="#000000" font-family="sans-serif" font-size="14" lengthAdjust="spacing" textLength="103.9951" x="240.67" y="259.4817">family_id: UUID</text><ellipse cx="231.67" cy="272.179" fill="#000000" rx="3" ry="3" style="stroke:#000000;stroke-width:1;"/><text fill="#000000" font-family="sans-serif" font-size="14" lengthAdjust="spacing" textLength="85.7158" x="240.67" y="275.97">name: string</text><ellipse cx="231.67" cy="288.6673" fill="#000000" rx="3" ry="3" style="stroke:#000000;stroke-width:1;"/><text fill="#000000" font-family="sans-serif" font-size="14" lengthAdjust="spacing" textLength="77.5879" x="240.67" y="292.4583">type: string</text><ellipse cx="231.67" cy="305.1555" fill="#000000" rx="3" ry="3" style="stroke:#000000;stroke-width:1;"/><text fill="#000000" font-family="sans-serif" font-size="14" lengthAdjust="spacing" textLength="101.582" x="240.67" y="308.9466">address: string</text><ellipse cx="231.67" cy="321.6438" fill="#000000" rx="3" ry="3" style="stroke:#000000;stroke-width:1;"/><text fill="#000000" font-family="sans-serif" font-size="14" lengthAdjust="spacing" textLength="105.2188" x="240.67" y="325.4348">protocol: string</text><ellipse cx="231.67" cy="338.1321" fill="#000000" rx="3" ry="3" style="stroke:#000000;stroke-width:1;"/><text fill="#000000" font-family="sans-serif" font-size="14" lengthAdjust="spacing" textLength="133.0752" x="240.67" y="341.9231">configuration: JSON</text></g><!--class Scenario--><g class="entity" data-entity="Scenario" data-source-line="31" data-uid="ent0005" id="entity_Scenario"><rect fill="#F1F1F1" height="146.9297" rx="2.5" ry="2.5" style="stroke:#181818;stroke-width:0.5;" width="150.5029" x="414.96" y="193.7083"/><ellipse cx="457.4988" cy="209.7083" fill="#ADD1B2" rx="11" ry="11" style="stroke:#181818;stroke-width:1;"/><path d="M461.113,216.2083 L453.3933,216.2083 L453.3933,203.8152 L461.113,203.8152 L461.113,205.9734 L455.842,205.9734 L455.842,208.6463 L460.615,208.6463 L460.615,210.8045 L455.842,210.8045 L455.842,214.0501 L461.113,214.0501 Z " fill="#000000"/><text fill="#000000" font-family="sans-serif" font-size="14" lengthAdjust="spacing" textLength="57.3057" x="477.6185" y="214.9993">Scenario</text><line style="stroke:#181818;stroke-width:0.5;" x1="415.96" x2="564.4629" y1="225.7083" y2="225.7083"/><ellipse cx="425.96" cy="239.4524" fill="#000000" rx="3" ry="3" style="stroke:#000000;stroke-width:1;"/><text fill="#000000" font-family="sans-serif" font-size="14" lengthAdjust="spacing" textLength="55.6377" x="434.96" y="243.2434">id: UUID</text><line style="stroke:#181818;stroke-width:1;" x1="415.96" x2="564.4629" y1="250.1966" y2="250.1966"/><ellipse cx="425.96" cy="263.9407" fill="#000000" rx="3" ry="3" style="stroke:#000000;stroke-width:1;"/><text fill="#000000" font-family="sans-serif" font-size="14" lengthAdjust="spacing" textLength="103.9951" x="434.96" y="267.7317">family_id: UUID</text><ellipse cx="425.96" cy="280.429" fill="#000000" rx="3" ry="3" style="stroke:#000000;stroke-width:1;"/><text fill="#000000" font-family="sans-serif" font-size="14" lengthAdjust="spacing" textLength="85.7158" x="434.96" y="284.22">name: string</text><ellipse cx="425.96" cy="296.9173" fill="#000000" rx="3" ry="3" style="stroke:#000000;stroke-width:1;"/><text fill="#000000" font-family="sans-serif" font-size="14" lengthAdjust="spacing" textLength="124.5029" x="434.96" y="300.7083">description: string</text><ellipse cx="425.96" cy="313.4055" fill="#000000" rx="3" ry="3" style="stroke:#000000;stroke-width:1;"/><text fill="#000000" font-family="sans-serif" font-size="14" lengthAdjust="spacing" textLength="105.3281" x="434.96" y="317.1966">scenario: string</text><ellipse cx="425.96" cy="329.8938" fill="#000000" rx="3" ry="3" style="stroke:#000000;stroke-width:1;"/><text fill="#000000" font-family="sans-serif" font-size="14" lengthAdjust="spacing" textLength="116.8262" x="434.96" y="333.6848">enabled: boolean</text></g><!--link Family to User--><g class="link" data-entity-1="Family" data-entity-2="User" data-source-line="42" data-uid="lnk6" id="link_Family_User"><path codeLine="42" d="M255.19,125.7383 C234.77,143.7783 214.3671,161.7963 190.3871,182.9763" fill="none" id="Family-to-User" style="stroke:#181818;stroke-width:1;"/><polygon fill="#181818" points="185.89,186.9483,195.2836,183.9884,189.6375,183.6383,189.9876,177.9923,185.89,186.9483" style="stroke:#181818;stroke-width:1;"/></g><!--link Family to IoT Device--><g class="link" data-entity-1="Family" data-entity-2="IoT Device" data-source-line="43" data-uid="lnk7" id="link_Family_IoT Device"><path codeLine="43" d="M300.21,125.5183 C300.21,143.1283 300.21,158.5483 300.21,179.3183" fill="none" id="Family-to-IoT Device" style="stroke:#181818;stroke-width:1;"/><polygon fill="#181818" points="300.21,185.3183,304.21,176.3183,300.21,180.3183,296.21,176.3183,300.21,185.3183" style="stroke:#181818;stroke-width:1;"/></g><!--link Family to Scenario--><g class="link" data-entity-1="Family" data-entity-2="Scenario" data-source-line="44" data-uid="lnk8" id="link_Family_Scenario"><path codeLine="44" d="M341.9,125.5183 C363.2,145.7183 385.4363,166.8097 410.1963,190.2897" fill="none" id="Family-to-Scenario" style="stroke:#181818;stroke-width:1;"/><polygon fill="#181818" points="414.55,194.4183,410.7719,185.3229,410.9219,190.9778,405.2671,191.1278,414.55,194.4183" style="stroke:#181818;stroke-width:1;"/></g></g></svg>